<svg id="Layer_1" data-name="Layer 1" xmlns="http://www.w3.org/2000/svg" viewBox="0 0 864 864"><defs><style>.cls-1{fill:#22c170;}.cls-2{fill:#fff;}.cls-3{fill:#000001;}</style></defs><path d="M368,544.61c16.32-7.63,34.68-5.21,52.1-5.44,32.05-.12,64.1.23,96.15-.45-11.74,11-23.33,22.15-35.13,33.09-27.26.44-54.55,0-81.81.15-8-.15-16.17,2.75-21.55,8.78-3.79,6.68-.62,16.08,7,18.21,31,12.54,62,25,92.82,37.85,10.76,5.08,20.66,13.3,25.63,24.3,6,20.08-8.37,39.86-24.95,49.76-11,7.57-24.55,9.11-37.55,9.08-42-.09-84,.06-126,0,12.57-11.29,24.33-23.42,37.14-34.42,21.79-1.92,43.58.18,65.37-.65,14.4-.08,32.73,4.53,42.72-9-3.4-9.79-14.48-11.09-22.88-14.37-24.1-9.08-48.28-18-72.12-27.8-14.81-6.18-30.36-17.38-31.87-34.71C330.18,575.3,348,554.6,368,544.61Z"/><path class="cls-1" d="M368.64,558.25c16.32-7.63,34.68-5.2,52.1-5.44,32.05-.12,64.1.24,96.15-.44-11.74,11-23.33,22.14-35.13,33.08-27.26.45-54.55,0-81.81.15-8-.15-16.17,2.75-21.56,8.78-3.78,6.68-.62,16.09,7,18.21,31,12.54,62,25,92.81,37.85,10.77,5.09,20.67,13.31,25.64,24.3,6,20.08-8.37,39.86-25,49.77-11,7.57-24.54,9.1-37.55,9.07-42-.09-84,.06-126,0,12.56-11.29,24.33-23.41,37.13-34.41,21.8-1.92,43.59.18,65.38-.65,14.4-.09,32.73,4.52,42.72-9-3.4-9.79-14.49-11.09-22.88-14.37-24.1-9.08-48.29-18-72.12-27.79-14.81-6.18-30.36-17.39-31.87-34.72C330.79,588.94,348.56,568.24,368.64,558.25Z"/><rect class="cls-2" x="302.91" y="300.94" width="226.29" height="127.88"/><path class="cls-3" d="M379.24,134.91c11.4-3.79,22.61-9.18,34.91-8.91,15.17-.54,29.25,5.89,43,11.36,40.9,19,73.1,53.33,95.44,92a363.12,363.12,0,0,1,33.31,78c12.47,32,4.26,70.06-18.11,95.65,24.2,9.05,48.7,17.22,72.92,26.15,13.29,4.66,23.76,15.74,28.41,29,6.51,18.78,17,35.88,24.25,54.29.08,12.32-.22,24.65.1,37,5.45-1.09,13.71,1.66,16.58-4.63,7.15,15.77,16.29,30.54,23.14,46.43,9,21.87,4.95,48-9.11,66.84-4.7,3.19-10,5.37-14.92,8.14,0-10.94-.05-21.88-.22-32.82-5.22,0-10.42-.05-15.62-.05-.07,13.59-.09,27.15.08,40.71-4.41,2.45-8.89,4.78-13.36,7-1.41-20.06.74-40.26-1.59-60.3,1.46-13.39-.44-26.88,1.36-40.26-1.36-.28-4.08-.8-5.47-1.07.1,34.84-.57,69.66-.24,104.53q-6.92,3.86-14,7.23C660,675.1,660.18,659,660,643c-3.24.1-6.46.2-9.65.33.17,17.64,0,35.28.12,52.93-5.57,2.82-11.21,5.47-16.7,8.39-.28-23.59.37-47.19-.38-70.75q-9.24.18-18.48.42c.1,26.45-.2,52.93.15,79.38l0,.72c-4.2,2.16-8.49,4.75-13.41,4.11-4.83,7-13.68,8.93-20.66,13-.5-65.09.1-130.19-.28-195.28.6-3.53-1.85-5.59-4.65-7-.27-5.35-.42-10.67-.57-16q-7.08,0-14.18,0c-.1,5.44-.19,10.91-.27,16.38-12.74-.2-25.49-.22-38.26-.2-.22-1.58-.69-4.75-.91-6.31-2.5,0-5,0-7.45,0-.69,1.61-2.08,4.78-2.77,6.36-16.21-.22-32.42,0-48.63-.17-.2-6.06-.37-12.15-.57-18.21-2.65-.1-5.27-.18-7.89-.25q-1.08,9.21-1.88,18.46c-15.47-.37-31,.94-46.38-1.06a433,433,0,0,1-63.62.17c-5.27.62-10.54,1.09-15.81,1.26.07-6.68.12-13.39.17-20.07-3,0-6,0-9,0q0,10,.12,20c-21.9.1-43.9-.44-65.77.52-3.39,5.65-2,12.48-2.25,18.71,0,61,.27,122-.15,182.93-4.09-2.11-8.19-4.19-12.25-6.31,0-30.71-.05-61.43.05-92.14l-14.43-.07c-.15,28.34,0,56.67-.1,85a161.38,161.38,0,0,1-16.38-9.45c-6.46-2-12.35-5.32-18.24-8.49.64-19.15,0-38.3-.07-57.43l-9,.29c-.12,17.6.05,35.19-.12,52.79-5.12-3-10.42-5.72-15.79-8.22-.42-17.86-.2-35.73-.25-53.57-6.18,0-12.34,0-18.51-.05,0,14.7,0,29.4,0,44.09-3.66-2-7.32-3.93-11-5.91-.07-11-.07-22-.15-33H128c.32,10,.47,20-1.24,29.87-6.56-3.71-13.26-7.17-20-10.61C90.55,636.52,88.49,606,101.48,582c9.63-16.46,16.93-34.13,26.48-50.64-.12,5.62,0,11.24.15,16.88,1.44,0,4.33.12,5.79.17,0-9.77-.27-19.55,0-29.32,5.07-12.84,12.22-24.75,17.64-37.47,8.93-17.44,12.7-40.31,32.2-49.64,25.93-10.84,52.93-19.08,79.28-28.9a99.9,99.9,0,0,1-23.26-77.43c8.32-32.44,20.22-64.12,36.73-93.32C299.88,190.69,334.57,153.64,379.24,134.91Zm-40.14,197c1.75,13,4.18,25.88,5.24,38.95,2.18,8.83,3.84,19.55,12.35,24.62,12.9,7.79,26,15.24,38.88,23.06,3.76,2.23,7.55,4.68,12,5.42,4.7-3.29,2.87-13.14,9.92-12.47,2.45,4,4.28,8.41,6.31,12.64,16.93-7.67,32.17-18.55,48.45-27.49,7.35-3.17,10.62-11,12.3-18.29,3.14-15.34,5-30.9,7.4-46.37A1123.15,1123.15,0,0,1,339.1,331.87Zm-21,101.36c-.1,8-.12,16.06-.14,24.1,3,0,6-.08,9.08-.1q-.08-12-.1-24C323.93,433.25,321,433.25,318.06,433.23Zm195.45,9.52a150.05,150.05,0,0,0-.55,28.59c3.12,0,6.22,0,9.33,0q0-14.25,0-28.5ZM561,459.63c.22,13.73.1,27.47.15,41.2,4.75.1,9.5.18,14.27.27.33-14,.13-28,.15-42C570.7,459.26,565.85,459.43,561,459.63Zm-301.11.84c-.18,8.84-.1,17.67,0,26.5,1.58-.19,4.72-.56,6.28-.76-.4-8,1.29-16.46-1.19-24.2C263.72,461.63,261.17,460.87,259.89,460.47Zm101.5,2.43q.15,11.81-.05,23.65c5,.05,9.88.13,14.83.2q-.12-12-.1-23.93C371.17,462.85,366.27,462.85,361.39,462.9Zm-78.12,1q-.67,12.24-.54,24.5l19,.19c-.13-8.24-.15-16.45-.25-24.69ZM455,490.27l7.6.42c.15-8.37.15-16.73.05-25.1l-7.55.5C451.82,473.27,451.92,483,455,490.27ZM650.45,474c-.19,15.22-.27,30.44.08,45.66,2.37,0,7.1-.08,9.48-.13q.11-22.56,0-45.16ZM318,479.18c0,6.16-.05,12.32-.1,18.51,3.12,0,6.21.07,9.33.12-.12-6.26-.17-12.49-.22-18.75C324,479.11,321,479.13,318,479.18Zm24.94-.59c-.69,8-1.8,16.35.1,24.3.82.42,2.43,1.28,3.24,1.7.05-7.87.72-15.81-.32-23.63Zm59.64,33.68c1.09-.72,3.24-2.18,4.31-2.9.69-7.67.22-15.39.39-23.09-.91-1.14-2.74-3.44-3.66-4.58C401.36,491.75,402.18,502.09,402.57,512.27Zm-198.76-25c-.25,6.46-.35,12.91-.27,19.4,1.41-.3,4.25-.87,5.69-1.17-.07-5.79-.1-11.6-.07-17.39C207.82,487.94,205.15,487.49,203.81,487.3Zm21.63.64c.07,6.09.12,12.18.2,18.24h9.65c0-6.29,0-12.55,0-18.83Zm202.15-1.39c-.12,8.05-.12,16.11,0,24.16,2.35,0,7,0,9.35,0,0-8.05,0-16.06,0-24.08Zm54.81,5.62q.08,11.85.08,23.68l9.33-.59c-.52-7.47.69-15.27-1.17-22.54C487.9,492.44,485.15,492.27,482.4,492.17Zm137.81-.74c0,6.19,0,12.37-.09,18.58,3.06.13,6.16.25,9.25.4.15-5.37,1-10.81-.12-16.09C628.83,489.18,623.48,491.63,620.21,491.43Zm-440.58,3.66q0,12.06,0,24.18l9,.22a105.3,105.3,0,0,0-.23-24.65C185.47,494.92,182.55,495,179.63,495.09ZM512.52,499c-.89,5.91-.2,16,8.46,13.31,2.82-6.09.77-13.44,1-20C517.32,492.05,511.78,493,512.52,499Zm29.15-4.93c-.12,8-.07,16,0,24.06l4.43-.18c-.05-7.5.42-15-.25-22.47C544.79,495.14,542.71,494.45,541.67,494.1Zm-180.33,5.79q.07,9.11.08,18.24c4.92.07,9.82.15,14.75.25q-.07-9.32-.1-18.61C371.17,499.79,366.24,499.82,361.34,499.89Zm-101.55,2.4q.07,9.13,0,18.29c2.13-.07,4.28-.17,6.43-.22,0-5.87,0-11.71.05-17.55C264.12,502.61,262,502.44,259.79,502.29Zm22.94,6c0,6.34,0,12.65-.05,19q9.49,0,19,.1c-.05-6.38-.07-12.79-.1-19.18Q292.16,508.3,282.73,508.33Zm316,4c.1,11.93.12,23.86-.05,35.78l5.37.57q.08-18.45,0-36.89C602.69,511.94,600.05,512.19,598.71,512.34ZM145.09,525.85c-.27,8.14-.32,16.31-.25,24.45,6.21,0,12.45,0,18.66,0,.07-8.17.05-16.33-.17-24.47C157.24,525.88,151.18,525.9,145.09,525.85Zm78.29-1.56c-.19,8.32-.14,16.63.38,25,4.67-.15,9.35-.33,14-.47,0-8.12,0-16.26.05-24.38C233,524.34,228.19,524.32,223.38,524.29Zm391.81,1.49c-.44,8.16-.49,16.35-.27,24.52q9.32,0,18.66,0c0-8.17,0-16.33-.08-24.5Q624.34,525.85,615.19,525.78Zm-435.38,14.1c-.18,6.66-.23,13.32-.23,20,2.48-.1,7.38-.25,9.83-.32,0-6.14.29-12.35-1.21-18.34Zm24.64.45c-.69,8.11-1.63,16.43-.1,24.52.92.42,2.73,1.29,3.62,1.71.1-7.94.79-16-.25-23.88C206.9,542.08,205.27,540.92,204.45,540.33Zm446,.22c-.1,6.38-.17,12.74-.22,19.13,2.45,0,7.32.05,9.77.05,0-6.36,0-12.75,0-19.11C657.63,540.62,652.85,540.58,650.48,540.55Zm23.83.87c-.27,8.16-.27,16.33-.1,24.52,1.39-.22,4.13-.62,5.52-.82q-.22-11.31-.07-22.64ZM128,554c0,6.06,0,12.15.07,18.21,1.41.12,4.28.32,5.69.42.08-6.31.13-12.59.13-18.88C132.42,553.84,129.47,554,128,554ZM598.76,572.1l5.22.4c0-7.15,1.19-14.68-1.93-21.41C596.41,556.68,599.28,565.1,598.76,572.1ZM224.25,560.55a95.75,95.75,0,0,0-.79,19.52c4.77-.05,9.58-.07,14.38-.1-.05-6.46-.15-12.92-.4-19.38C233,560.59,228.63,560.57,224.25,560.55Zm469,1.28q.07,9.06,0,18.14,8,0,16-.39c0-5.72,0-11.41.14-17.13A26.78,26.78,0,0,0,693.24,561.83ZM144.89,570q0,9.59.17,19.16c6.12,0,12.23,0,18.34,0q0-9.57,0-19.15Zm34.62,1.41c0,6.31.07,12.65.37,19l8.79-.89c-.08-6-.08-12-.1-18C185.55,571.51,182.53,571.46,179.51,571.43Zm435.31-1.33c0,6.31.1,12.59.2,18.9l18.51.28q.11-9.66.12-19.26Zm35.49,1.48c.05,6.11.05,12.23.05,18.36,3.21-.07,6.43-.12,9.65-.17q0-9,.15-18C656.86,571.68,653.57,571.61,650.31,571.58ZM223.31,593c0,6.36.1,12.74.4,19.1q7-.11,14-.15c0-6.26,0-12.52,0-18.78Q230.55,593.06,223.31,593Zm470.25-.18q-.25,9.54-.32,19.11c5.32,0,10.67-.13,16-.17-.47-5.87,1.14-12.33-1.16-17.82C703.56,591.92,698.36,593.14,693.56,592.81ZM128.09,599c0,6.11-.05,12.25-.13,18.39l5.87.29c-.05-6.28-.08-12.57-.1-18.83C132.32,598.9,129.5,599,128.09,599Zm16.9-.07c-.05,6.23-.08,12.47-.13,18.73q9.28,0,18.56,0c0-6.31,0-12.59.08-18.88C157.31,598.88,151.15,598.9,145,598.93Zm453.79.17q0,9.06-.12,18.14c1.36.15,4,.49,5.4.67V598.7Zm16.11-.22q-.07,9.39-.12,18.78c6.29,0,12.55,0,18.83,0,0-6.26-.05-12.52,0-18.76Q624.26,598.9,614.89,598.88Zm-435.31,11c0,6.39,0,12.8-.1,19.21l9.93,0c-.1-5.37.27-10.79-.69-16.08C188.72,608.06,182.58,610.51,179.58,609.86Zm471-.64c-.2,6.66-.27,13.31-.32,20l9.8,0c0-5.87.12-11.76.32-17.62Z"/><path class="cls-3" d="M396.9,382.13c3.91-2.28,7.4-5.2,11.24-7.65,5.15,1.26,10.44.54,15.66.77,3.47,2,6.51,4.72,9.93,6.8,10.56.27,21.13-1.34,31.67-.52a272.06,272.06,0,0,0-32,7.28c-6.51,2.82-10.52-5.37-16.71-5.22-5.86-1.09-10.17,3.53-15,5.84-11.73-2.06-23-6.07-34.85-7.87C376.84,381.14,386.86,382.13,396.9,382.13Z"/><path class="cls-1" d="M318.06,433.23c2.95,0,5.87,0,8.84,0q0,12,.1,24c-3.05,0-6.07.07-9.08.1C317.94,449.29,318,441.27,318.06,433.23Z"/><path class="cls-1" d="M513.51,442.75l8.78.13q0,14.25,0,28.5c-3.11,0-6.21,0-9.33,0A150.05,150.05,0,0,1,513.51,442.75Z"/><path class="cls-1" d="M561,459.63c4.85-.2,9.7-.37,14.57-.54,0,14,.18,28-.15,42-4.77-.09-9.52-.17-14.27-.27C561.1,487.1,561.22,473.36,561,459.63Z"/><path class="cls-1" d="M259.89,460.47c1.28.4,3.83,1.16,5.09,1.54,2.48,7.74.79,16.18,1.19,24.2-1.56.2-4.7.57-6.28.76C259.79,478.14,259.71,469.31,259.89,460.47Z"/><path class="cls-1" d="M361.39,462.9c4.88,0,9.78,0,14.68-.08q0,12,.1,23.93c-4.95-.07-9.88-.15-14.83-.2Q361.54,474.72,361.39,462.9Z"/><path class="cls-1" d="M283.27,463.89h18.24c.1,8.24.12,16.45.25,24.69l-19-.19Q282.61,476.14,283.27,463.89Z"/><path class="cls-1" d="M455,490.27c-3.11-7.25-3.21-17,.1-24.18l7.55-.5c.1,8.37.1,16.73-.05,25.1Z"/><path class="cls-1" d="M650.45,474l9.56.37q.11,22.57,0,45.16c-2.38,0-7.11.1-9.48.13C650.18,504.4,650.26,489.18,650.45,474Z"/><path class="cls-1" d="M318,479.18c3-.05,6-.07,9-.12.05,6.26.1,12.49.22,18.75-3.12-.05-6.21-.1-9.33-.12C317.94,491.5,318,485.34,318,479.18Z"/><path class="cls-1" d="M342.93,478.59l3,2.37c1,7.82.37,15.76.32,23.63-.81-.42-2.42-1.28-3.24-1.7C341.13,494.94,342.24,486.63,342.93,478.59Z"/><path class="cls-1" d="M402.57,512.27c-.39-10.18-1.21-20.52,1-30.57.92,1.14,2.75,3.44,3.66,4.58-.17,7.7.3,15.42-.39,23.09C405.81,510.09,403.66,511.55,402.57,512.27Z"/><path class="cls-1" d="M203.81,487.3c1.34.19,4,.64,5.35.84,0,5.79,0,11.6.07,17.39-1.44.3-4.28.87-5.69,1.17C203.46,500.21,203.56,493.76,203.81,487.3Z"/><path class="cls-1" d="M225.44,487.94l9.8-.59c0,6.28,0,12.54,0,18.83h-9.65C225.56,500.12,225.51,494,225.44,487.94Z"/><path class="cls-1" d="M427.59,486.55l9.28,0c0,8,0,16,0,24.08-2.32,0-7,0-9.35,0C427.47,502.66,427.47,494.6,427.59,486.55Z"/><path class="cls-1" d="M482.4,492.17c2.75.1,5.5.27,8.24.55,1.86,7.27.65,15.07,1.17,22.54l-9.33.59Q482.48,504,482.4,492.17Z"/><path class="cls-1" d="M620.21,491.43c3.27.2,8.62-2.25,9,2.89,1.14,5.28.27,10.72.12,16.09-3.09-.15-6.19-.27-9.25-.4C620.21,503.8,620.24,497.62,620.21,491.43Z"/><path class="cls-1" d="M179.63,495.09c2.92-.1,5.84-.17,8.76-.25a105.3,105.3,0,0,1,.23,24.65l-9-.22Q179.61,507.17,179.63,495.09Z"/><path class="cls-1" d="M512.52,499c-.74-6,4.8-7,9.48-6.69-.25,6.56,1.8,13.91-1,20C512.32,515,511.63,504.94,512.52,499Z"/><path class="cls-1" d="M541.67,494.1c1,.35,3.12,1,4.16,1.41.67,7.45.2,15,.25,22.47l-4.43.18C541.6,510.14,541.55,502.12,541.67,494.1Z"/><path class="cls-1" d="M361.34,499.89c4.9-.07,9.83-.1,14.73-.12q0,9.28.1,18.61c-4.93-.1-9.83-.18-14.75-.25Q361.42,509,361.34,499.89Z"/><path class="cls-1" d="M259.79,502.29c2.17.15,4.33.32,6.5.52-.05,5.84-.07,11.68-.05,17.55-2.15,0-4.3.15-6.43.22Q259.85,511.42,259.79,502.29Z"/><path class="cls-1" d="M282.73,508.33q9.42,0,18.85-.1c0,6.39.05,12.8.1,19.18q-9.49-.1-19-.1C282.75,521,282.75,514.67,282.73,508.33Z"/><path class="cls-1" d="M318,509.54c3,0,6,0,9,0,0,6.68-.1,13.39-.17,20.07l-8.74-.15Q318,519.54,318,509.54Z"/><path class="cls-1" d="M454.54,510.83c2.62.07,5.24.15,7.89.25.2,6.06.37,12.15.57,18.21H452.66Q453.47,520.05,454.54,510.83Z"/><path class="cls-1" d="M598.71,512.34c1.34-.15,4-.4,5.32-.54q.08,18.44,0,36.89l-5.37-.57C598.83,536.2,598.81,524.27,598.71,512.34Z"/><path class="cls-1" d="M561.29,513.28q7.1,0,14.18,0c.15,5.32.3,10.64.57,16-5,.34-10,.42-15,.39C561.1,524.19,561.19,518.72,561.29,513.28Z"/><path class="cls-1" d="M693.41,512.39c6.29,10.39,11,21.6,16.68,32.34-2.87,6.29-11.13,3.54-16.58,4.63C693.19,537,693.49,524.71,693.41,512.39Z"/><path class="cls-1" d="M128,531.39c1-4.47,3.67-8.34,5.92-12.27-.25,9.77.05,19.55,0,29.32-1.46-.05-4.35-.14-5.79-.17C128,542.63,127.84,537,128,531.39Z"/><path class="cls-1" d="M514.4,523.1c2.47,0,5,0,7.45,0,.22,1.56.69,4.73.91,6.31-3.71,0-7.42,0-11.13,0C512.32,527.88,513.71,524.71,514.4,523.1Z"/><path class="cls-1" d="M145.09,525.85c6.09,0,12.15,0,18.24,0,.22,8.14.24,16.3.17,24.47-6.21,0-12.45,0-18.66,0C144.77,542.16,144.82,534,145.09,525.85Z"/><path class="cls-1" d="M223.38,524.29c4.81,0,9.63.05,14.43.1-.05,8.12-.05,16.26-.05,24.38-4.65.14-9.33.32-14,.47C223.24,540.92,223.19,532.61,223.38,524.29Z"/><path class="cls-1" d="M615.19,525.78q9.13.08,18.31,0c.13,8.17.13,16.33.08,24.5q-9.36,0-18.66,0C614.7,542.13,614.75,533.94,615.19,525.78Z"/><path class="cls-1" d="M179.81,539.88l8.39,1.31c1.5,6,1.16,12.2,1.21,18.34-2.45.07-7.35.22-9.83.32C179.58,553.2,179.63,546.54,179.81,539.88Z"/><path class="cls-1" d="M204.45,540.33c.82.59,2.45,1.75,3.27,2.35,1,7.89.35,15.94.25,23.88-.89-.42-2.7-1.29-3.62-1.71C202.82,556.76,203.76,548.44,204.45,540.33Z"/><path class="cls-1" d="M650.48,540.55c2.37,0,7.15.07,9.53.07,0,6.36,0,12.75,0,19.11-2.45,0-7.32,0-9.77-.05C650.31,553.29,650.38,546.93,650.48,540.55Z"/><path class="cls-1" d="M674.31,541.42l5.35,1.06q-.15,11.32.07,22.64c-1.39.2-4.13.6-5.52.82C674,557.75,674,549.58,674.31,541.42Z"/><path class="cls-1" d="M128,554c1.48,0,4.43-.2,5.89-.25,0,6.29,0,12.57-.13,18.88-1.41-.1-4.28-.3-5.69-.42C128,566.19,128,560.1,128,554Z"/><path class="cls-1" d="M598.76,572.1c.52-7-2.35-15.42,3.29-21,3.12,6.73,2,14.26,1.93,21.41Z"/><path class="cls-1" d="M224.25,560.55c4.38,0,8.79,0,13.19,0,.25,6.46.35,12.92.4,19.38-4.8,0-9.61,0-14.38.1A95.75,95.75,0,0,1,224.25,560.55Z"/><path class="cls-1" d="M693.24,561.83a26.78,26.78,0,0,1,16.18.62c-.12,5.72-.17,11.41-.14,17.13q-8,.36-16,.39Q693.3,570.88,693.24,561.83Z"/><path class="cls-1" d="M144.89,570l18.51,0q0,9.57,0,19.15c-6.11-.05-12.22-.07-18.34,0Q144.83,579.6,144.89,570Z"/><path class="cls-1" d="M179.51,571.43c3,0,6,.08,9.06.1,0,6,0,12,.1,18l-8.79.89C179.58,584.08,179.48,577.74,179.51,571.43Z"/><path class="cls-1" d="M614.82,570.1l18.83-.08q0,9.62-.12,19.26L615,589C614.92,582.69,614.87,576.41,614.82,570.1Z"/><path class="cls-1" d="M650.31,571.58c3.26,0,6.55.1,9.85.15q-.15,9-.15,18c-3.22.05-6.44.1-9.65.17C650.36,583.81,650.36,577.69,650.31,571.58Z"/><path class="cls-1" d="M674.38,579.4c1.39.27,4.11.79,5.47,1.07-1.8,13.38.1,26.87-1.36,40.26,2.33,20,.18,40.24,1.59,60.3q-3,1.41-5.94,2.9C673.81,649.06,674.48,614.24,674.38,579.4Z"/><path class="cls-1" d="M223.31,593q7.24.07,14.48.17c0,6.26,0,12.52,0,18.78q-7,0-14,.15C223.41,605.73,223.29,599.35,223.31,593Z"/><path class="cls-1" d="M693.56,592.81c4.8.33,10-.89,14.53,1.12,2.3,5.49.69,12,1.16,17.82-5.34,0-10.69.12-16,.17Q693.32,602.34,693.56,592.81Z"/><path class="cls-1" d="M128.09,599c1.41,0,4.23-.1,5.64-.15,0,6.26.05,12.55.1,18.83l-5.87-.29C128,611.25,128.06,605.11,128.09,599Z"/><path class="cls-1" d="M145,598.93c6.16,0,12.32,0,18.51-.13-.08,6.29-.08,12.57-.08,18.88q-9.27,0-18.56,0C144.91,611.4,144.94,605.16,145,598.93Z"/><path class="cls-1" d="M598.78,599.1l5.28-.4v19.21c-1.37-.18-4-.52-5.4-.67Q598.77,608.15,598.78,599.1Z"/><path class="cls-1" d="M614.89,598.88q9.36,0,18.71,0c-.05,6.24,0,12.5,0,18.76-6.28,0-12.54,0-18.83,0Q614.81,608.27,614.89,598.88Z"/><path class="cls-1" d="M179.58,609.86c3,.65,9.14-1.8,9.14,3.15,1,5.29.59,10.71.69,16.08l-9.93,0C179.56,622.66,179.58,616.25,179.58,609.86Z"/><path class="cls-1" d="M650.58,609.22l9.8,2.33c-.2,5.86-.3,11.75-.32,17.62l-9.8,0C650.31,622.53,650.38,615.88,650.58,609.22Z"/><path class="cls-1" d="M144.86,634c6.17,0,12.33,0,18.51.05,0,17.84-.17,35.71.25,53.57-6.13-3.41-12.37-6.63-18.76-9.53C144.89,663.42,144.84,648.72,144.86,634Z"/><path class="cls-1" d="M223.31,633.15l14.43.07c-.1,30.71,0,61.43-.05,92.14q-7.12-3.87-14.48-7.21C223.34,689.82,223.16,661.49,223.31,633.15Z"/><path class="cls-1" d="M693.36,633.27c5.2,0,10.4,0,15.62.05.17,10.94.22,21.88.22,32.82-5.22,2.67-10.52,5.24-15.76,7.84C693.27,660.42,693.29,646.86,693.36,633.27Z"/><path class="cls-1" d="M614.87,634.29q9.24-.22,18.48-.42c.75,23.56.1,47.16.38,70.75a175.07,175.07,0,0,1-18.71,9C614.67,687.22,615,660.74,614.87,634.29Z"/><path class="cls-1" d="M128,639.16h5.76c.08,11,.08,22,.15,33-2.4-1-4.77-2.1-7.15-3.17C128.46,659.16,128.31,649.14,128,639.16Z"/><path class="cls-1" d="M179.53,643.07l9-.29c.1,19.13.71,38.28.07,57.43-3.07-1.46-6.14-2.89-9.18-4.35C179.58,678.26,179.41,660.67,179.53,643.07Z"/><path class="cls-1" d="M650.31,643.3c3.19-.13,6.41-.23,9.65-.33.22,16.07.07,32.13.15,48.19-3.25,1.65-6.46,3.36-9.68,5.07C650.33,678.58,650.48,660.94,650.31,643.3Z"/></svg>